<svg width="22" height="20" viewBox="0 0 22 20" fill="none" xmlns="http://www.w3.org/2000/svg">
<path d="M18.2795 3.4062C21.8759 7.00265 21.8759 12.8337 18.2795 16.4301M15.5664 6.1196C17.6644 8.21753 17.6644 11.619 15.5664 13.7169M5.62791 6.081L10.4573 1.25157C10.9408 0.76811 11.7674 1.11052 11.7674 1.79424V18.0422C11.7674 18.7259 10.9408 19.0683 10.4573 18.5849L5.62791 13.7554H3.33485C2.43505 13.7554 1.59209 13.2372 1.35312 12.3697C1.13811 11.5891 1.02326 10.7671 1.02326 9.91821C1.02326 9.06933 1.13811 8.24727 1.35312 7.46673C1.59209 6.59925 2.43505 6.081 3.33485 6.081H5.62791Z" stroke="white" stroke-width="2" stroke-linecap="round" stroke-linejoin="round"/>
</svg>
