<svg width="22" height="20" viewBox="0 0 22 20" fill="none" xmlns="http://www.w3.org/2000/svg">
<path d="M5.38257 9.25C6.18892 9.25 6.91648 8.80416 7.4141 8.16967C8.18726 7.18384 9.16169 6.3634 10.2755 5.77021C10.9977 5.38563 11.6243 4.81428 11.9281 4.05464C12.1408 3.5231 12.25 2.95587 12.25 2.38338V1.75C12.25 1.33579 12.5858 1 13 1C14.2426 1 15.25 2.00736 15.25 3.25C15.25 4.40163 14.9904 5.49263 14.5266 6.46771C14.261 7.02604 14.6336 7.75 15.2519 7.75M15.2519 7.75H18.3777C19.4044 7.75 20.3233 8.44399 20.432 9.46486C20.4769 9.88708 20.5 10.3158 20.5 10.75C20.5 13.5976 19.5081 16.2136 17.851 18.2712C17.4634 18.7525 16.8642 19 16.2462 19H12.2302C11.7466 19 11.2661 18.922 10.8072 18.7691L7.69278 17.7309C7.23393 17.578 6.75342 17.5 6.26975 17.5H4.65421M15.2519 7.75H13M4.65421 17.5C4.73702 17.7046 4.82713 17.9054 4.92423 18.1022C5.12137 18.5017 4.8462 19 4.40067 19H3.49289C2.60418 19 1.77991 18.482 1.52056 17.632C1.18208 16.5226 1 15.3451 1 14.125C1 12.5725 1.29481 11.0889 1.83149 9.72711C2.13655 8.95303 2.91733 8.5 3.74936 8.5H4.80212C5.27404 8.5 5.5473 9.05591 5.3023 9.45925C4.47588 10.8198 4 12.4168 4 14.125C4 15.3185 4.23232 16.4578 4.65421 17.5Z" stroke="white" stroke-width="2" stroke-linecap="round" stroke-linejoin="round"/>
</svg>
